<svg width="40" height="31" viewBox="0 0 40 31" fill="none" xmlns="http://www.w3.org/2000/svg">
                        <path
                            d="M2.53807 30.2754C0.846024 30.2754 0 29.71 0 28.5793C0 28.0846 0.203046 27.7312 0.609137 27.5192C1.01523 27.3072 1.55668 27.0952 2.2335 26.8832C4.06091 26.3885 5.6176 25.7171 6.90355 24.869C8.18951 24.021 9.1709 22.9962 9.84772 21.7948C10.5922 20.5227 10.9645 19.1093 10.9645 17.5545C10.9645 16.2118 10.5584 15.1871 9.74619 14.4803C8.93401 13.703 7.95262 13.1729 6.80203 12.8902C5.58376 12.5369 4.53469 11.8655 3.65482 10.8761C2.84264 9.81603 2.43655 8.43793 2.43655 6.74182C2.43655 4.90437 3.14721 3.38493 4.56853 2.18352C5.98985 0.911432 7.61421 0.275391 9.44162 0.275391C12.4873 0.275391 14.9577 1.30013 16.8528 3.34959C18.7479 5.32839 19.6954 7.94323 19.6954 11.1941C19.6954 14.0916 19.1878 16.7065 18.1726 19.0386C17.1574 21.3001 15.8037 23.3143 14.1117 25.081C12.4873 26.7772 10.6599 28.0846 8.62944 29.0033C6.66667 29.8514 4.63621 30.2754 2.53807 30.2754ZM22.8426 30.2754C21.1506 30.2754 20.3046 29.71 20.3046 28.5793C20.3046 28.0846 20.5076 27.7312 20.9137 27.5192C21.3198 27.3072 21.8613 27.0952 22.5381 26.8832C24.3655 26.3885 25.9222 25.7171 27.2081 24.869C28.4941 24.021 29.4755 22.9962 30.1523 21.7948C30.8968 20.5227 31.269 19.1093 31.269 17.5545C31.269 16.2118 30.8629 15.1871 30.0508 14.4803C29.2386 13.703 28.2572 13.1729 27.1066 12.8902C25.8883 12.5369 24.8393 11.8655 23.9594 10.8761C23.1472 9.81603 22.7411 8.43793 22.7411 6.74182C22.7411 4.90437 23.4518 3.38493 24.8731 2.18352C26.2944 0.911432 27.9188 0.275391 29.7462 0.275391C32.7919 0.275391 35.2623 1.30013 37.1574 3.34959C39.0525 5.32839 40 7.94323 40 11.1941C40 14.0916 39.4924 16.7065 38.4772 19.0386C37.4619 21.3001 36.1083 23.3143 34.4162 25.081C32.7919 26.7772 30.9645 28.0846 28.934 29.0033C26.9712 29.8514 24.9408 30.2754 22.8426 30.2754Z"
                            fill="white"
                        />
                    </svg>