<svg
              width="15"
              height="12"
              viewBox="0 0 15 12"
              fill="none"
              xmlns="http://www.w3.org/2000/svg"
            >
              <path
                d="M14.4 1.42063C13.8702 1.66181 13.3008 1.82424 12.7032 1.89746C13.3134 1.52276 13.782 0.92904 14.0022 0.221493C13.4316 0.568499 12.7992 0.820755 12.126 0.956727C11.5878 0.367925 10.8192 0 9.9696 0C8.0622 0 6.6606 1.82486 7.0914 3.71924C4.6368 3.59311 2.46 2.3872 1.0026 0.554348C0.2286 1.91591 0.6012 3.69709 1.9164 4.59906C1.4328 4.58306 0.9768 4.44709 0.579 4.22006C0.5466 5.62346 1.5276 6.93642 2.9484 7.22867C2.5326 7.34434 2.0772 7.37141 1.614 7.28035C1.9896 8.4838 3.0804 9.35931 4.374 9.38392C3.132 10.3825 1.5672 10.8285 0 10.639C1.3074 11.4986 2.8608 12 4.5288 12C10.014 12 13.113 7.24959 12.9258 2.98892C13.503 2.56132 14.004 2.02789 14.4 1.42063Z"
                fill="#B1BAC2"
              ></path>
            </svg>